<svg class="icon" viewBox="0 0 1024 1024" xmlns="http://www.w3.org/2000/svg" width="200" height="200"><path d="M511.091 960.558c-60.438 0-119.086-11.844-174.313-35.203-53.328-22.556-101.213-54.839-142.329-95.954-41.115-41.114-73.398-89.001-95.954-142.328-23.359-55.228-35.204-113.875-35.204-174.314 0-60.438 11.844-119.086 35.204-174.313 22.555-53.328 54.839-101.213 95.954-142.329 41.115-41.115 89.001-73.398 142.329-95.954 55.228-23.359 113.875-35.204 174.313-35.204 60.439 0 119.086 11.844 174.314 35.204 53.327 22.555 101.214 54.839 142.328 95.954 41.115 41.115 73.398 89.001 95.954 142.329 23.359 55.228 35.203 113.875 35.203 174.313 0 60.439-11.844 119.086-35.203 174.314-22.556 53.327-54.839 101.214-95.954 142.328-41.114 41.115-89.001 73.398-142.328 95.954-55.227 23.359-113.875 35.203-174.314 35.203zm0-831.599c-211.627 0-383.799 172.172-383.799 383.799s172.172 383.799 383.799 383.799S894.89 724.385 894.89 512.758 722.719 128.959 511.091 128.959z"/><path d="M386.797 319.996h64v383.888h-64zm189-1h64v383.888h-64z"/></svg>